<svg xmlns="http://www.w3.org/2000/svg" version="1.1" xmlns:xlink="http://www.w3.org/1999/xlink" width="512" height="512" x="0" y="0" viewBox="0 0 1000 1000" style="enable-background:new 0 0 512 512" xml:space="preserve" class=""><g><clipPath id="a"><circle cx="500" cy="500" r="500" fill="#000000" opacity="1" data-original="#000000"></circle></clipPath><path fill="#de2910" d="M-210.011-138.251h1813.94v1457.153h-1813.94z" clip-path="url(#a)" opacity="1" data-original="#de2910" class=""></path><g fill="#ffde00"><path d="M359.733 391.717 309.197 236.19l-50.534 155.527H95.135l132.296 96.119-50.535 155.53 132.301-96.123 132.302 96.123-50.536-155.53 132.297-96.119zM673.117 262.561l28.048 46.742 4.783-54.299 53.118-12.226-50.16-21.332 4.782-54.299-35.787 41.116-50.161-21.333 28.045 46.742-35.79 41.116zM813.819 406.199l7.711 53.958 25.479-48.184 53.699 9.345-37.952-39.124 25.484-48.192-48.945 24.009-37.952-39.123 7.709 53.959-48.939 24.007zM861.941 619.201l42.924-33.6-54.474 1.954-18.694-51.206-14.974 52.414-54.476 1.953 45.219 30.438-14.974 52.413 42.924-33.6 45.219 30.435zM708.275 745.627l2.528-54.446-34.049 42.561-51.005-19.233 29.958 45.54-34.056 42.566 52.572-14.422 29.958 45.539 2.53-54.452 52.568-14.421z" clip-path="url(#a)" fill="#ffde00" opacity="1" data-original="#ffde00"></path></g></g></svg>