<svg xmlns="http://www.w3.org/2000/svg" version="1.1" xmlns:xlink="http://www.w3.org/1999/xlink" width="512" height="512" x="0" y="0" viewBox="0 0 1000 1000" style="enable-background:new 0 0 512 512" xml:space="preserve" class=""><g><clipPath id="a"><circle cx="500" cy="500" r="500" fill="#000000" opacity="1" data-original="#000000"></circle></clipPath><path fill="#f89939" d="M-251.5 0h1503v1002h-1503z" clip-path="url(#a)" opacity="1" data-original="#f89939" class=""></path><path fill="#ffffff" d="M-251.5 334h1503v334h-1503z" clip-path="url(#a)" opacity="1" data-original="#ffffff"></path><path fill="#1e8943" d="M-251.5 668h1503v334h-1503z" clip-path="url(#a)" opacity="1" data-original="#1e8943"></path><circle cx="500" cy="501" r="133.6" fill="#2a2c7a" clip-path="url(#a)" opacity="1" data-original="#2a2c7a"></circle><g fill="#fff" clip-path="url(#a)"><path d="M589.059 425.318c-2.045-2.405-4.167-4.746-6.398-6.978l-46.76 52.429-18.562 14.585c.83.919 1.595 1.897 2.271 2.941l18.885-14.145 62.73-31.594a116.322 116.322 0 0 0-5.061-8c-2.553 1.852-6.126 1.356-8.06-1.161-1.925-2.512-1.482-6.085.955-8.077zM485.507 390.896c-3.146.412-6.022-1.762-6.524-4.875a115.964 115.964 0 0 0-18.281 4.87c1.142 2.954-.261 6.291-3.202 7.506-2.937 1.217-6.291-.146-7.573-3.043a116.19 116.19 0 0 0-8.369 4.421l38.534 58.726 9.277 21.694a23.401 23.401 0 0 1 3.433-1.434l-8.774-21.892-14.286-68.785 22.027 66.714 3.346 23.341a23.32 23.32 0 0 1 3.69-.459l-2.812-23.442L500 384.1c-3.188 0-6.336.164-9.459.414a5.837 5.837 0 0 1-5.034 6.382zM567.604 412.895a5.837 5.837 0 0 1-1.162-8.059 116.301 116.301 0 0 0-7.999-5.061l-31.594 62.731-14.146 18.884a23.524 23.524 0 0 1 2.942 2.272L530.23 465.1l52.43-46.76c-2.231-2.231-4.572-4.353-6.978-6.398-1.992 2.437-5.565 2.881-8.078.953zM530.23 536.9l-14.584-18.562a23.33 23.33 0 0 1-2.942 2.271l14.146 18.885 31.594 62.73a116.787 116.787 0 0 0 7.999-5.061 5.839 5.839 0 0 1 1.162-8.06c2.513-1.926 6.086-1.482 8.078.954 2.404-2.047 4.746-4.167 6.978-6.398zM546.762 505.007l-23.44-2.812a23.423 23.423 0 0 1-.459 3.69l23.34 3.346 66.713 22.027-68.784-14.286-21.892-8.774a23.108 23.108 0 0 1-1.434 3.434l21.694 9.276 58.727 38.534a117.593 117.593 0 0 0 4.421-8.368c-2.897-1.283-4.261-4.638-3.045-7.573 1.217-2.94 4.555-4.345 7.508-3.203a116.056 116.056 0 0 0 4.868-18.28c-3.112-.502-5.285-3.378-4.874-6.523a5.836 5.836 0 0 1 6.381-5.034c.252-3.123.415-6.271.415-9.459zM610.104 486.507c-.411-3.146 1.762-6.022 4.874-6.523a116.268 116.268 0 0 0-4.868-18.282c-2.953 1.142-6.291-.261-7.508-3.202-1.216-2.937.147-6.291 3.045-7.573a116.993 116.993 0 0 0-4.421-8.369L542.5 481.092l-21.694 9.277a23.293 23.293 0 0 1 1.434 3.433l21.892-8.774 68.784-14.286-66.713 22.027-23.34 3.346c.254 1.197.396 2.433.459 3.69l23.44-2.812L616.9 501c0-3.188-.163-6.336-.415-9.459a5.836 5.836 0 0 1-6.381-5.034z" fill="#ffffff" opacity="1" data-original="#ffffff"></path><path d="m538.494 527.85-18.885-14.146a23.423 23.423 0 0 1-2.271 2.942L535.9 531.23l46.76 52.43c2.231-2.231 4.352-4.573 6.398-6.978-2.437-1.992-2.88-5.565-.954-8.078 1.934-2.517 5.507-3.013 8.06-1.162a116.787 116.787 0 0 0 5.061-7.999zM501.194 477.679c1.258.064 2.493.205 3.69.459l3.346-23.341 22.027-66.714-14.286 68.785-8.772 21.892c1.19.385 2.333.871 3.432 1.434l9.276-21.694 38.534-58.726a116.77 116.77 0 0 0-8.368-4.42c-1.283 2.897-4.638 4.26-7.573 3.043-2.94-1.215-4.345-4.552-3.203-7.506a115.952 115.952 0 0 0-18.28-4.87c-.5 3.113-3.378 5.286-6.523 4.875a5.836 5.836 0 0 1-5.034-6.382c-3.123-.25-6.271-.414-9.459-.414l4.007 70.137zM469.769 465.1l14.585 18.563a23.355 23.355 0 0 1 2.941-2.273l-14.145-18.884-31.594-62.732a116.718 116.718 0 0 0-8 5.062 5.835 5.835 0 0 1-1.161 8.059c-2.513 1.928-6.086 1.484-8.078-.954-2.405 2.046-4.747 4.166-6.978 6.398zM461.506 474.15l18.884 14.145a23.428 23.428 0 0 1 2.273-2.941L464.1 470.769l-46.76-52.429c-2.232 2.231-4.353 4.573-6.398 6.978 2.438 1.992 2.881 5.565.954 8.078a5.835 5.835 0 0 1-8.059 1.161 116.718 116.718 0 0 0-5.062 8zM498.806 524.321a23.438 23.438 0 0 1-3.69-.459l-3.346 23.34-22.027 66.713 14.286-68.784 8.774-21.892a23.185 23.185 0 0 1-3.433-1.434l-9.277 21.694-38.534 58.727a117.615 117.615 0 0 0 8.369 4.421c1.282-2.897 4.636-4.261 7.573-3.045 2.941 1.217 4.344 4.555 3.202 7.508 5.889 2.101 12 3.728 18.281 4.868.502-3.112 3.377-5.285 6.523-4.874a5.835 5.835 0 0 1 5.034 6.381c3.123.252 6.271.415 9.459.415l-4.006-70.139zM441.557 602.225l31.594-62.73 14.145-18.885a23.413 23.413 0 0 1-2.941-2.271L469.769 536.9l-52.429 46.76a117.323 117.323 0 0 0 6.978 6.398c1.992-2.437 5.565-2.88 8.078-.954 2.517 1.934 3.013 5.507 1.161 8.06a116.322 116.322 0 0 0 8 5.061zM514.493 611.104c3.146-.411 6.021 1.762 6.523 4.874a116.244 116.244 0 0 0 18.28-4.868c-1.142-2.953.263-6.291 3.203-7.508 2.936-1.216 6.29.147 7.573 3.045a116.971 116.971 0 0 0 8.368-4.421L519.907 543.5l-9.276-21.694a23.17 23.17 0 0 1-3.434 1.434l8.774 21.892 14.286 68.784-22.027-66.713-3.346-23.34a23.438 23.438 0 0 1-3.69.459l2.812 23.44L500 617.9c3.188 0 6.336-.163 9.459-.415a5.837 5.837 0 0 1 5.034-6.381zM394.354 551.073a116.557 116.557 0 0 0 4.42 8.368l58.726-38.534 21.694-9.276a23.344 23.344 0 0 1-1.434-3.432l-21.892 8.772-68.785 14.286 66.714-22.027 23.341-3.346a23.32 23.32 0 0 1-.459-3.69l-23.442 2.812L383.1 501c0 3.188.164 6.336.414 9.459 3.127-.319 5.966 1.897 6.382 5.034.412 3.146-1.762 6.023-4.875 6.523a115.923 115.923 0 0 0 4.87 18.28c2.954-1.142 6.291.263 7.506 3.203 1.217 2.937-.147 6.291-3.043 7.574z" fill="#ffffff" opacity="1" data-original="#ffffff"></path><path d="M482.663 516.646a23.337 23.337 0 0 1-2.272-2.942l-18.884 14.146-62.731 31.594a116.301 116.301 0 0 0 5.061 7.999 5.837 5.837 0 0 1 8.059 1.162c1.928 2.513 1.484 6.086-.954 8.078 2.046 2.405 4.167 4.746 6.398 6.978l46.76-52.43zM476.679 499.806c.064-1.257.205-2.493.459-3.69l-23.341-3.346-66.714-22.027 68.785 14.286 21.892 8.774c.385-1.19.871-2.334 1.434-3.433l-21.694-9.277-58.726-38.534a116.803 116.803 0 0 0-4.421 8.369c2.897 1.282 4.261 4.636 3.043 7.573-1.215 2.941-4.552 4.344-7.506 3.202-2.103 5.889-3.729 12-4.87 18.281 3.113.501 5.286 3.377 4.875 6.524-.416 3.137-3.254 5.353-6.382 5.034-.25 3.123-.414 6.271-.414 9.459l70.137-4.006z" fill="#ffffff" opacity="1" data-original="#ffffff"></path></g></g></svg>