<svg xmlns="http://www.w3.org/2000/svg" version="1.1" xmlns:xlink="http://www.w3.org/1999/xlink" width="512" height="512" x="0" y="0" viewBox="0 0 1000 1000" style="enable-background:new 0 0 512 512" xml:space="preserve" class=""><g><clipPath id="a"><circle cx="500" cy="500" r="500" fill="#000000" opacity="1" data-original="#000000"></circle></clipPath><path fill="#05afca" d="M-552 0h2004v1002H-552z" clip-path="url(#a)" opacity="1" data-original="#05afca" class=""></path><g fill="#fec613"><path d="M715.453 420.843c0 74.449-60.358 134.823-134.823 134.823-74.448 0-134.821-60.374-134.821-134.823 0-74.465 60.373-134.823 134.821-134.823 74.465 0 134.823 60.358 134.823 134.823zM580.63 267.638c8.023-.112 11.024-5.119 11.024-11.123 0-8.02-11.024-46.2-11.024-46.2s-11.024 38.181-11.024 46.2c-.001 6.005 3.016 11.123 11.024 11.123zM733.833 420.843c.098 8.007 5.12 11.022 11.122 11.022 8.023 0 46.202-11.022 46.202-11.022s-38.179-11.024-46.202-11.024c-6.002 0-11.122 3-11.122 11.024zM580.63 574.046c-8.008.099-11.024 5.104-11.024 11.123 0 8.007 11.024 46.186 11.024 46.186s11.024-38.179 11.024-46.186c0-6.019-3.001-11.123-11.024-11.123zM427.427 420.843c-.098-8.024-5.103-11.024-11.122-11.024-8.024 0-46.184 11.024-46.184 11.024s38.16 11.022 46.184 11.022c6.019.001 11.122-3.014 11.122-11.022zM639.26 279.299c7.452 2.968 12.133-.505 14.449-6.066 3.065-7.402 7.485-46.885 7.485-46.885s-24.789 31.049-27.855 38.456c-2.3 5.56-1.484 11.431 5.921 14.495zM722.172 479.475c-2.968 7.435.506 12.132 6.066 14.431 7.404 3.066 46.888 7.502 46.888 7.502s-31.052-24.808-38.456-27.872c-5.561-2.299-11.432-1.47-14.498 5.939zM522 562.386c-7.437-2.984-12.133.505-14.437 6.05-3.062 7.404-7.498 46.904-7.498 46.904s24.789-31.052 27.871-38.456c2.3-5.562 1.468-11.428-5.936-14.498zM439.087 362.214c2.985-7.451-.505-12.148-6.05-14.449-7.402-3.068-46.901-7.486-46.901-7.486s31.049 24.787 38.456 27.855c5.56 2.302 11.429 1.484 14.495-5.92zM688.968 312.507c5.741 5.59 11.399 4.175 15.656-.067 5.675-5.673 24.87-40.459 24.87-40.459s-34.785 19.193-40.461 24.871c-4.24 4.253-5.74 9.994-.065 15.655zM688.968 529.165c-5.594 5.74-4.175 11.416.065 15.673 5.676 5.658 40.461 24.87 40.461 24.87s-19.195-34.803-24.87-40.462c-4.257-4.256-9.997-5.74-15.656-.081zM472.29 529.165c-5.723-5.594-11.398-4.175-15.656.081-5.657 5.659-24.869 40.462-24.869 40.462s34.803-19.212 40.464-24.87c4.254-4.257 5.74-9.998.061-15.673zM472.29 312.507c5.612-5.741 4.193-11.402-.062-15.656-5.661-5.677-40.464-24.871-40.464-24.871s19.212 34.786 24.869 40.459c4.259 4.244 10 5.742 15.657.068zM722.172 362.214c3.164 7.37 8.938 8.222 14.498 5.92 7.404-3.068 38.456-27.855 38.456-27.855s-39.483 4.417-46.888 7.486c-5.56 2.301-9.133 7.043-6.066 14.449zM639.26 562.386c-7.372 3.164-8.221 8.937-5.921 14.498 3.066 7.404 27.855 38.456 27.855 38.456s-4.42-39.5-7.485-46.904c-2.316-5.545-7.046-9.117-14.449-6.05zM439.087 479.475c-3.166-7.373-8.935-8.238-14.496-5.938-7.406 3.064-38.456 27.872-38.456 27.872s39.499-4.437 46.901-7.502c5.546-2.301 9.119-7.03 6.051-14.432zM522 279.299c7.372-3.16 8.236-8.935 5.937-14.496-3.082-7.406-27.871-38.456-27.871-38.456s4.436 39.483 7.498 46.885c2.303 5.561 7.032 9.135 14.436 6.067zM610.523 270.578c7.877 1.466 11.808-2.856 12.981-8.76 1.565-7.861-1.794-47.458-1.794-47.458s-18.266 35.292-19.831 43.154c-1.174 5.903.783 11.498 8.644 13.064zM730.897 450.737c-1.468 7.879 2.854 11.792 8.757 12.963 7.861 1.565 47.459-1.79 47.459-1.79s-35.292-18.249-43.152-19.814c-5.904-1.179-11.498.764-13.064 8.641zM550.736 571.095c-7.877-1.452-11.808 2.87-12.966 8.773-1.565 7.861 1.794 47.442 1.794 47.442s18.25-35.292 19.815-43.153c1.175-5.886-.766-11.497-8.643-13.062zM430.379 390.952c1.451-7.879-2.869-11.812-8.772-12.984-7.862-1.565-47.445 1.794-47.445 1.794s35.292 18.266 43.152 19.832c5.887 1.174 11.499-.785 13.065-8.642zM665.744 293.457c6.719 4.371 12.004 1.873 15.347-3.131 4.452-6.656 16.504-44.522 16.504-44.522s-30.383 25.623-34.835 32.272c-3.344 5.011-3.67 10.931 2.984 15.381zM708.016 505.962c-4.37 6.715-1.875 11.995 3.132 15.343 6.653 4.452 44.522 16.483 44.522 16.483s-25.621-30.362-32.274-34.814c-5.007-3.344-10.927-3.686-15.38 2.988zM495.516 548.226c-6.722-4.366-12.004-1.871-15.347 3.119-4.45 6.67-16.488 44.539-16.488 44.539s30.366-25.621 34.821-32.291c3.341-4.991 3.684-10.911-2.986-15.367zM453.243 335.729c4.373-6.717 1.876-12.003-3.113-15.348-6.672-4.45-44.539-16.502-44.539-16.502s25.617 30.381 32.289 34.835c4.989 3.345 10.909 3.669 15.363-2.985zM708.016 335.729c4.534 6.605 10.373 6.33 15.38 2.985 6.653-4.455 32.274-34.835 32.274-34.835s-37.869 12.052-44.522 16.502c-5.007 3.345-7.584 8.676-3.132 15.348zM665.744 548.226c-6.604 4.538-6.328 10.376-2.984 15.367 4.452 6.67 34.835 32.291 34.835 32.291s-12.052-37.869-16.504-44.539c-3.343-4.991-8.677-7.568-15.347-3.119zM453.243 505.962c-4.534-6.611-10.374-6.332-15.362-2.988-6.672 4.452-32.289 34.814-32.289 34.814s37.866-12.031 44.539-16.483c4.988-3.348 7.564-8.677 3.112-15.343zM495.516 293.457c6.604-4.534 6.327-10.37 2.986-15.381-4.455-6.65-34.821-32.272-34.821-32.272s12.038 37.867 16.488 44.522c3.343 5.004 8.676 7.581 15.347 3.131zM730.897 390.952c1.663 7.844 7.159 9.816 13.063 8.642 7.86-1.566 43.152-19.832 43.152-19.832s-39.598-3.359-47.459-1.794c-5.902 1.172-10.321 5.121-8.756 12.984zM610.523 571.095c-7.845 1.667-9.818 7.176-8.644 13.062 1.565 7.861 19.831 43.153 19.831 43.153s3.359-39.581 1.794-47.442c-1.173-5.903-5.119-10.323-12.981-8.773zM430.379 450.737c-1.664-7.844-7.178-9.82-13.065-8.641-7.861 1.565-43.152 19.814-43.152 19.814s39.583 3.355 47.445 1.79c5.903-1.172 10.319-5.102 8.772-12.963zM550.736 270.578c7.844-1.666 9.817-7.162 8.644-13.063-1.565-7.863-19.815-43.154-19.815-43.154s-3.359 39.597-1.794 47.458c1.158 5.903 5.104 10.325 12.965 8.759zM556.574 712.897c-3.6.196-7.11.652-10.551 1.762-4.714.636-9.215 2.267-13.896 3.033l-1.876.31-3.131.294c.195.881.326 1.745.326 2.609 0 .896-.098 1.777-.326 2.512-.195.701-.832 1.565-1.337 2.104-.669.733-1.37 1.37-2.202 1.761-.799.408-1.712.571-2.609.637-.896.032-1.826 0-2.707-.326-.896-.311-1.729-.885-2.495-1.55-.946.245-1.908.408-2.806.506-.945.098-1.81.098-2.642 0a26.864 26.864 0 0 1-2.805-.93 16.49 16.49 0 0 1-2.609-1.37c-3.409 2.006-7.208 3.898-9.28 7.404-1.174 1.615-1.402 3.441-1.68 5.35-.16 2.348.44 4.811 1.438 6.979.371.637.669-2.299 1.809-2.707 1.908-1.565 4.272-2.707 6.687-3.327 2.022-1.043 1.761.065.929 1.664-.195.832-1.337 4.012.196 2.397 6.784-3.001 14.303-3.604 21.608-4.175 10.634-1.094 21.283-1.338 31.933-1.469 10.03.131 20.044.277 30.057.637 4.778.13 9.59 1.207 14.303.407 1.142-.31 2.903-.375 3.571-1.044-2.136-1.239-4.647-1.271-7.012-1.565h-19.114c-5.3-.538-10.845-.604-15.853-2.609-1.337-.538-2.576-1.794-3.848-.424-1.908.669-3.931 1.125-5.938 1.256-3.506.277-7.012-.457-10.258-1.762 2.332-3.245 5.138-6.083 7.715-9.083a83.15 83.15 0 0 1-6.148-1.272c3.637-2.512 7.012-5.35 10.551-8.009z" clip-path="url(#a)" fill="#fec613" opacity="1" data-original="#fec613" class=""></path><path d="M504.811 723.205c5.66 5.186 9.623-.979 14.906-3.213 17.728-6.1 33.188-16.762 48.438-27.398 9.246-7.649 17.254-17.564 29.665-20.044 24.202-7.322 49.921-6.425 74.22-13.193 18.511-25.327 49.921-34.362 76.26-48.926 5.903-1.826 8.187-6.703 10.078-12.068 10.047-15.868 23.729-29.91 39.924-39.516 7.648-4.191 16.798-6.589 25.457-4.681-.619 10.323-6.539 19.473-13.699 26.615 5.855-.13 10.895-3.815 16.814-3.62 2.022 10.601-9.426 16.162-15.51 22.751 3.393.799 16.374 1.777 9.297 5.17-9.02 6.262-19.326 10.567-27.66 17.841 7.698 1.37 8.562 3.018.75 5.79-4.224 2.87-12.361 3.865-13.145 9.459 5.807 3.571-2.674 7.11-5.952 8.269-6.246 1.451-12.819 4.175-4.518 8.921-3.132 4.745-9.883 5.757-15.379 5.3 1.663 5.382 4.077 11.399-2.903 13.765-15.656 11.84-34.02 20.455-53.704 22.408 24.577 1.892 49.904-2.658 70.91-16.031 2.772-3.278 17.319-6.797 9.182-9.558-3.833-1.598-12.036-3.376-12.591-6.295 11.367-7.013 25.719-4.513 37.95-8.688.326-3.967-9.312-2.857-12.899-3.771-8.562-.701-8.057-2.87.195-3.686 10.454-2.772 22.277-3.311 31.052-10.127-7.144-3.312-16.146-.392-23.778-3.1 12.949-5.658 28.197-6.229 39.81-14.727 5.284-5.887-6.769-4.044-10.291-3.897-7.159 1.239-10.47-2.186-2.332-5.17 13.896-10.241 31.492-16.896 41.261-31.753 2.316-3.326 5.447-13.34-1.94-9.736-9.688 3.213-18.233 14.123-29.274 10.748 21.772-16.88 42.484-36.092 57.374-59.445.767-6.735-9.802-7.469-12.558-2.186-13.993 13.487-26.648 29.404-44.571 37.853 17.156-16.554 31.345-36.156 43.724-56.477 2.658-6.051 9.785-13.324 5.903-20.029-6.229-5.167-14.025-.438-17.271 5.741-10.878 14.19-19.131 30.776-33.123 42.339 12.248-23.37 24.92-48.259 25.229-75.199-.032-5.545-1.158-13.731-8.692-12.688-5.969 1.077-4.551 10.016-7.013 14.533-5.431 18.411-7.976 38.356-19.081 54.485 2.495-14.974 6.865-30.562 3.506-45.681-1.565-6.751-12.476-3.849-11.057 2.84-13.031 65.999-57.309 123.699-115.221 157.099-26.518 15.004-56.15 24.675-86.272 29.062-8.105 1.761-16.88.718-24.626 3.485-18.771 14.404-30.139 38.492-53.916 46.027-10.649 5.3-24.545 6.377-32.16 16.275-.654 1.256-.802 2.724-.769 4.127m207.821 24.299c-7.274 4.355-12.803-3.375-18.869-5.691-4.339 2.349-4.746 10.226-8.79 13.961-4.844 5.512-10.78-1.533-10.34-6.98-5.79 4.893-8.726 15.949-18.103 14.482-4.437-3.621-7.73-11.237-11.123-2.577-2.772 4.24-10.128 10.258-13.943 3.865-1.175-5.644-4.013-12.276-7.078-3.311-2.104 6.327-8.872 10.991-15.411 8.22-3.572-2.92 2.87-13.749-1.68-12.982-6.817 4.502-10.78 15.689-20.289 14.792-3.686-4.143 2.234-11.175-1.81-15.771-4.778 6.133-10.079 15.118-18.347 15.771-3.996-3.245.146-12.524-2.394-13.895-8.485 5.088-17.438 14.155-28.104 11.317 4.159-15.917 21.527-21.494 36.141-22.733 25.131-3.078 51.584 2.593 75.77-6.475 3.914-2.381 13.373-5.757 10.014-11.27-2.984-4.354 7.763-2.658 8.79-7.746-.636-6.442 4.941-5.545 10.389-6.116 24.431-1.06 48.551 4.094 72.899 4.958 1.843 11.872-11.318 20.206-21.919 16.537-5.056.815-12.64-11.628-11.155-2.577-1.028 4.762-.31 11.041-4.648 14.221" clip-path="url(#a)" fill="#fec613" opacity="1" data-original="#fec613" class=""></path><path d="M575.949 656.262c-3.506 6.373-5.562 13.679-10.078 19.387-13.569-12.346-33.237-11.938-50.443-12.77-14.205-.75-29.665-2.055-40.641-12.198-11.565-9.459-21.003-21.756-33.922-29.454-11.789-3.196-23.68-7.208-33.17-15.297-20.257-16.504-31.851-41.017-51.649-58.043-3.787-3.718-8.237-6.604-12.461-9.752-4.012.979-2.202 9.654-7.111 5.235-2.677-1.908-9.377-2.088-9.982.57 6.054 7.976 12.119 17.075 12.951 27.284-4.124.424-11.465-.881-13.501.669 5.478 8.203 12.509 15.493 20.481 21.299-3.816.62-11.367.277-12.833 1.827 7.924 6.458 16.42 13.062 26.795 14.71 2.116 2.805-3.103 8.22 1.287 10.601 2.558 1.044 10.976 2.789 5.167 5.691-3.979 2.675-2.493 8.921 2.597 8.791 3.211 1.631 10.438 2.038 11.004 4.876-2.85 2.903-11.722 6.344-4.175 9.067 7.047 3.914 15.09 6.463 23.144 6.735-4.042 3.393-9.019 5.333-13.177 8.529 18.592 10.895 39.191 18.054 59.561 24.969 8.103 2.707 16.29 5.235 24.708 6.817-24.416-1.403-48.029-8.645-70.262-18.527-11.528-5.056-23.125-9.948-34.949-14.303 5.19-2.69 11.173-3.343 16.555-5.671-11.157-2.238-23.339-2.972-33.137-9.104 1.499-2.674 7.188-2.805 10.336-4.175 5.938-1.419 9.607-3.131 1.258-3.653-8.43-2.283-18.086-1.256-25.505-6.344.471-3.05 8.25-1.974 11.414-3.295 3.979-.685 8.399-1.255 11.594-3.946-13.031-5.397-30.055-1.565-40.248-13.063-2.367-4.387 7.29-.848 10.046-1.582 6.98 0 14.5 2.219 21.15-.603-18.967-8.317-39.287-16.13-53.765-31.524-1.598-2.479-6.414-9.247-2.53-10.079 11.251 1.484 19.409 13.776 31.459 11.856 1.599-2.152-6.998-5.691-9.149-8.774-17.564-15.069-34.607-31.427-46.918-51.16-.852-6.589 9.522-7.583 12.246-2.495 13.438 12.933 25.572 28.035 42.289 36.874 5.936 2.87-3.407-3.408-4.648-5.691-15.458-17.956-30.171-36.907-40.985-58.043-1.925-3.816-5.136-10.717.656-12.736 5.785-2.901 11.526 1.043 14.461 6.016 11.353 14.337 19.719 31.363 33.877 43.317-12.054-23.419-24.938-48.043-25.248-74.985.277-5.219.618-13.114 7.7-12.9 5.949-.899 5.004 6.701 6.964 10.337 5.853 19.785 8.395 41.194 20.157 58.663-2.593-14.68-6.425-29.78-3.883-44.702.589-4.909 6.1-6.393 9.704-3.423 2.905 7.127 3.522 15.915 6.165 23.529 15.085 51.619 48.975 97.038 93.12 127.502 36.368 24.937 79.522 39.826 123.572 42.419 3.978.343 7.973.474 11.952.722M522.408 722.324a2.371 2.371 0 0 1-2.365 2.381 2.375 2.375 0 0 1-2.381-2.381 2.37 2.37 0 0 1 2.381-2.365 2.367 2.367 0 0 1 2.365 2.365z" clip-path="url(#a)" fill="#fec613" opacity="1" data-original="#fec613" class=""></path><path d="M520.81 721.949c0 .538-.44.962-.962.962a.968.968 0 0 1-.979-.962c0-.539.44-.963.979-.963.521 0 .962.424.962.963z" clip-path="url(#a)" fill="#fec613" opacity="1" data-original="#fec613" class=""></path></g><path fill="#05afca" d="M519.848 723.103c-.645 0-1.17-.518-1.17-1.153a1.163 1.163 0 0 1 2.324 0c0 .635-.519 1.153-1.154 1.153zm0-1.925c-.432 0-.787.348-.787.771s.355.771.787.771c.424 0 .771-.347.771-.771s-.348-.771-.771-.771z" clip-path="url(#a)" opacity="1" data-original="#05afca" class=""></path><path fill="#fec613" d="M120.132 73.062s-9.638-8.091-12.9-4.028c-5.268 6.525 16.162 39.045 16.162 50.492 0 18.804-12.541 23.906-28.018 26.599-10.389 1.796-27.317-.752-27.317-.752 3.18-4.287 5.251-5.543 10.633-5.886-5.987-3.099-12.07-9.832-12.07-20.32 0-16.178 6.656-22.851 6.656-41.065 0-10.128-8.283-22.995-8.283-22.995 14.645 1.468 21.919 15.037 17.776 25.879 2.33.343 4.45-.179 6.275-1.908 1.076 3.003-.618 6.493-2.885 9.51 1.829.979 3.164.389 6.067-.212-.259 3.099-2.122 6.393-6.668 9.489 13.176-3.422 21.281 5.757 21.281 15.365 0 7.271-5.09 12.474-10.062 12.474-1.599 0-3.963-.667-5.298-1.662-.932 2.004-.459 4.681.518 6.685-3.649-.977-5.967-3.131-4.322-7.648-2.789-.243-5.021-1.207-6.538-2.997 1.533-1.975 3.867-3.099 6.538-3.002-2.037-4.208.247-6.573 3.558-8.479 0 0-2.12 8.479 3.262 8.479 2.411 0 4.633-.797 4.633-4.354 0-3.099-2.726-7.402-8.988-7.127-6.281.259-11.365 4.322-11.365 14.337 0 9.23 7.453 13.828 17.267 14.119 8.855.263 15.528-4.534 15.528-13.648 0-12.166-17.532-39.858-17.532-50.687 0-8.122 7.307-12.655 14.452-12.655 9.275 0 17.087 9.163 17.087 9.163z" clip-path="url(#a)" opacity="1" data-original="#fec613" class=""></path><path fill="#fec613" d="M122.154 292.721c0 20.309-18.233 30.758-32.57 30.758-19.293 0-29.584-11.544-29.584-26.663 0-8.562 1.566-13.928 5.533-22.131 0 0 31.834-66.227 44.225-91.833 1.553-3.197 2.059-6.833 2.059-12.167 0-8.235-7.991-14.955-16.357-15.167-7.636-.195-15.954 7.111-15.954 15.444 0 10.111 5.237 14.613 10.635 14.613 6.621 0 9.263-2.724 9.263-7.37 0-3.248-1.566-4.652-3.816-4.652-5.689 0-4.095 7.648-4.095 7.648-2.817-.618-5.135-3.49-3.816-7.092a10.29 10.29 0 0 1-5.51-3.294c1.515-1.47 3.26-2.609 5.51-3.003-1.319-4.383.461-6.538 4.31-7.451-.785 1.694-.819 3.26-.557 4.729 6.051-1.729 15.332 1.011 15.332 11.465 0 10.387-7.194 19.13-20.712 16.947 3.209 1.547 4.842 4.697 5.168 8.199-2.446-.944-5.168-1.09-5.168-1.09 1.582 2.789 3.766 5.186 3.686 10.664-2.514-1.14-4.848-3.244-8.059-1.908 5.04 9.916-1.144 23.552-16.896 26.779 5.757-6.752 8.58-14.058 8.58-21.313 0-23.552-6.543-27.513-6.543-43.87 0-6.848 3.524-14.253 10.504-19.276v.275c-4.617-1.235-7.569-3.502-9.263-6.588 10.538-2.985 25.851-2.934 34.066.297 9.461 1.107 16.05 8.35 18.007 12.032 1.943 3.688 5.708 16.996 0 28.966-6.262 13.114-35.795 75.723-44.997 95.391-1.953 4.175-3.131 8.609-3.131 13.406 0 12.05 11.043 16.258 17.305 16.258 7.502 0 15.135-5.725 15.135-12.852 0-4.517-2.446-7.239-5.987-7.239-8.479 0-7.973 7.207-6.279 11.756-5.263-2.379-8.333-6.605-7.498-11.071-2.984-.41-5.824-1.829-8.45-4.78 2.069-2.609 4.583-4.585 8.45-4.648-1.684-6.929 2.952-9.864 7.498-11.481-1.431 5.074-2.379 10.927 6.279 10.927 6.313 0 11.273 1.095 14.174 5.203.163-5.478.685-27.07.685-27.07.359-8.109-10.864-7.879-18.007-5.466 2.693-9.345 8.222-14.4 21.01-13.11-3.115-1.307-6.409-4.226-6.409-9.853 0-7.6 6.163-16.033 10.223-18.524z" clip-path="url(#a)" opacity="1" data-original="#fec613" class=""></path><path fill="#fec613" d="M122.154 353.652c0-20.32-18.233-30.758-32.57-30.758-19.293 0-29.584 11.544-29.584 26.65 0 8.574 1.566 13.94 5.533 22.143 0 0 31.834 66.217 44.225 91.833 1.553 3.199 2.059 6.836 2.059 12.171 0 8.215-7.991 14.955-16.357 15.163-7.636.179-15.954-7.126-15.954-15.442 0-10.111 5.237-14.629 10.635-14.629 6.621 0 9.263 2.726 9.263 7.39 0 3.243-1.566 4.646-3.816 4.646-5.689 0-4.095-7.665-4.095-7.665-2.817.618-5.135 3.506-3.816 7.111a10.27 10.27 0 0 0-5.51 3.275c1.515 1.486 3.26 2.626 5.51 3.02-1.319 4.387.461 6.538 4.31 7.435-.785-1.678-.819-3.243-.557-4.713 6.051 1.729 15.332-1.01 15.332-11.481 0-10.387-7.194-19.13-20.712-16.943 3.209-1.531 4.842-4.678 5.168-8.203-2.446.96-5.168 1.095-5.168 1.095 1.582-2.772 3.766-5.19 3.686-10.651-2.514 1.139-4.848 3.245-8.059 1.908 5.04-9.916-1.144-23.549-16.896-26.778 5.757 6.751 8.58 14.058 8.58 21.313 0 23.552-6.543 27.499-6.543 43.873 0 6.852 3.524 14.235 10.504 19.258v-.259c-4.617 1.224-7.569 3.509-9.263 6.589 10.538 2.984 25.851 2.936 34.066-.31 9.461-1.093 16.05-8.351 18.007-12.02 1.943-3.686 5.708-16.992 0-28.982-6.262-13.11-35.795-75.701-44.997-95.387-1.953-4.175-3.131-8.594-3.131-13.389 0-12.052 11.043-16.26 17.305-16.26 7.502 0 15.135 5.706 15.135 12.849 0 4.518-2.446 7.243-5.987 7.243-8.479 0-7.973-7.208-6.279-11.761-5.263 2.385-8.333 6.605-7.498 11.078-2.984.404-5.824 1.825-8.45 4.776 2.069 2.609 4.583 4.583 8.45 4.646-1.684 6.935 2.952 9.853 7.498 11.481-1.431-5.086-2.379-10.927 6.279-10.927 6.313 0 11.273-1.089 14.174-5.201.163 5.463.685 27.058.685 27.058.359 8.12-10.864 7.889-18.007 5.478 2.693 9.343 8.222 14.386 21.01 13.112-3.115 1.303-6.409 4.226-6.409 9.832 0 7.616 6.163 16.05 10.223 18.529zM120.132 73.062s9.62-8.091 12.902-4.028c5.247 6.525-16.178 39.045-16.178 50.492 0 18.804 12.542 23.906 28.03 26.599 10.393 1.796 27.317-.752 27.317-.752-3.194-4.287-5.264-5.543-10.629-5.886 5.965-3.099 12.066-9.832 12.066-20.32 0-16.178-6.668-22.851-6.668-41.065 0-10.128 8.299-22.995 8.299-22.995-14.662 1.468-21.919 15.037-17.793 25.879-2.33.343-4.45-.179-6.262-1.908-1.079 3.003.622 6.493 2.889 9.51-1.829.979-3.164.389-6.087-.212.279 3.099 2.139 6.393 6.672 9.489-13.177-3.422-21.285 5.757-21.285 15.365 0 7.271 5.09 12.474 10.066 12.474 1.61 0 3.979-.667 5.298-1.662.948 2.004.458 4.681-.506 6.685 3.637-.977 5.953-3.131 4.304-7.648 2.807-.243 5.039-1.207 6.56-2.997-1.549-1.975-3.867-3.099-6.56-3.002 2.042-4.208-.224-6.573-3.535-8.479 0 0 2.104 8.479-3.278 8.479-2.418 0-4.617-.797-4.617-4.354 0-3.099 2.705-7.402 8.984-7.127 6.262.259 11.353 4.322 11.353 14.337 0 9.23-7.453 13.828-17.256 14.119-8.854.263-15.538-4.534-15.538-13.648 0-12.166 17.546-39.858 17.546-50.687 0-8.122-7.306-12.655-14.466-12.655-9.263 0-17.091 9.163-17.091 9.163l5.447 6.835h.016z" clip-path="url(#a)" opacity="1" data-original="#fec613" class=""></path><path fill="#fec613" d="M118.107 292.721c0 20.309 18.237 30.758 32.552 30.758 19.309 0 29.586-11.544 29.586-26.663 0-8.562-1.566-13.928-5.512-22.131 0 0-31.851-66.227-44.248-91.833-1.547-3.197-2.037-6.833-2.037-12.167 0-8.235 7.975-14.955 16.357-15.167 7.633-.195 15.948 7.111 15.948 15.444 0 10.111-5.251 14.613-10.633 14.613-6.634 0-9.259-2.724-9.259-7.37 0-3.248 1.565-4.652 3.816-4.652 5.673 0 4.073 7.648 4.073 7.648 2.824-.618 5.158-3.49 3.816-7.092a10.31 10.31 0 0 0 5.533-3.294c-1.537-1.47-3.282-2.609-5.533-3.003 1.341-4.383-.438-6.538-4.287-7.451.781 1.694.797 3.26.554 4.729-6.064-1.729-15.346 1.011-15.346 11.465 0 10.387 7.21 19.13 20.728 16.947-3.215 1.547-4.86 4.697-5.184 8.199 2.458-.944 5.184-1.09 5.184-1.09-1.582 2.789-3.781 5.186-3.686 10.664 2.514-1.14 4.825-3.244 8.04-1.908-5.039 9.916 1.158 23.552 16.914 26.779-5.775-6.752-8.597-14.058-8.597-21.313 0-23.552 6.538-27.513 6.538-43.87 0-6.848-3.502-14.253-10.482-19.276v.275c4.613-1.235 7.565-3.502 9.259-6.588-10.533-2.985-25.847-2.934-34.085.297-9.438 1.107-16.043 8.35-17.986 12.032-1.94 3.688-5.722 16.996 0 28.966 6.263 13.114 35.781 75.723 44.996 95.391 1.941 4.175 3.131 8.609 3.131 13.406 0 12.05-11.039 16.258-17.318 16.258-7.504 0-15.134-5.725-15.134-12.852 0-4.517 2.462-7.239 6-7.239 8.479 0 7.957 7.207 6.279 11.756 5.268-2.379 8.333-6.605 7.485-11.071 2.985-.41 5.841-1.829 8.462-4.78-2.071-2.609-4.579-4.585-8.462-4.648 1.694-6.929-2.936-9.864-7.485-11.481 1.435 5.074 2.379 10.927-6.279 10.927-6.313 0-11.286 1.095-14.17 5.203-.179-5.478-.685-27.07-.685-27.07-.359-8.109 10.859-7.879 17.986-5.466-2.689-9.345-8.206-14.4-20.989-13.11 3.099-1.307 6.409-4.226 6.409-9.853 0-7.6-6.179-16.033-10.226-18.524z" clip-path="url(#a)" opacity="1" data-original="#fec613" class=""></path><path fill="#fec613" d="M118.107 353.652c0-20.32 18.237-30.758 32.552-30.758 19.309 0 29.586 11.544 29.586 26.65 0 8.574-1.566 13.94-5.512 22.143 0 0-31.851 66.217-44.248 91.833-1.547 3.199-2.037 6.836-2.037 12.171 0 8.215 7.975 14.955 16.357 15.163 7.633.179 15.948-7.126 15.948-15.442 0-10.111-5.251-14.629-10.633-14.629-6.634 0-9.259 2.726-9.259 7.39 0 3.243 1.565 4.646 3.816 4.646 5.673 0 4.073-7.665 4.073-7.665 2.824.618 5.158 3.506 3.816 7.111a10.29 10.29 0 0 1 5.533 3.275c-1.537 1.486-3.282 2.626-5.533 3.02 1.341 4.387-.438 6.538-4.287 7.435.781-1.678.797-3.243.554-4.713-6.064 1.729-15.346-1.01-15.346-11.481 0-10.387 7.21-19.13 20.728-16.943-3.215-1.531-4.86-4.678-5.184-8.203 2.458.96 5.184 1.095 5.184 1.095-1.582-2.772-3.781-5.19-3.686-10.651 2.514 1.139 4.825 3.245 8.04 1.908-5.039-9.916 1.158-23.549 16.914-26.778-5.775 6.751-8.597 14.058-8.597 21.313 0 23.552 6.538 27.499 6.538 43.873 0 6.852-3.502 14.235-10.482 19.258v-.259c4.613 1.224 7.565 3.509 9.259 6.589-10.533 2.984-25.847 2.936-34.085-.31-9.438-1.093-16.043-8.351-17.986-12.02-1.94-3.686-5.722-16.992 0-28.982 6.263-13.11 35.781-75.701 44.996-95.387 1.941-4.175 3.131-8.594 3.131-13.389 0-12.052-11.039-16.26-17.318-16.26-7.504 0-15.134 5.706-15.134 12.849 0 4.518 2.462 7.243 6 7.243 8.479 0 7.957-7.208 6.279-11.761 5.268 2.385 8.333 6.605 7.485 11.078 2.985.404 5.841 1.825 8.462 4.776-2.071 2.609-4.579 4.583-8.462 4.646 1.694 6.935-2.936 9.853-7.485 11.481 1.435-5.086 2.379-10.927-6.279-10.927-6.313 0-11.286-1.089-14.17-5.201-.179 5.463-.685 27.058-.685 27.058-.359 8.12 10.859 7.889 17.986 5.478-2.689 9.343-8.206 14.386-20.989 13.112 3.099 1.303 6.409 4.226 6.409 9.832 0 7.616-6.179 16.05-10.226 18.529zM120.132 928.938s-9.638 8.094-12.9 4.028c-5.268-6.523 16.162-39.043 16.162-50.491 0-18.804-12.541-23.908-28.018-26.6-10.389-1.794-27.317.75-27.317.75 3.18 4.289 5.251 5.545 10.633 5.888-5.987 3.099-12.07 9.834-12.07 20.32 0 16.179 6.656 22.849 6.656 41.065 0 10.127-8.283 22.995-8.283 22.995 14.645-1.468 21.919-15.037 17.776-25.882 2.33-.343 4.45.18 6.275 1.908 1.076-3.001-.618-6.491-2.885-9.508 1.829-.979 3.164-.388 6.067.212-.259-3.099-2.122-6.394-6.668-9.492 13.176 3.425 21.281-5.757 21.281-15.362 0-7.273-5.09-12.477-10.062-12.477-1.599 0-3.963.669-5.298 1.664-.932-2.006-.459-4.681.518-6.683-3.649.975-5.967 3.132-4.322 7.645-2.789.261-5.021 1.207-6.538 3.001 1.533 1.974 3.867 3.099 6.538 3.001-2.037 4.207.247 6.572 3.558 8.48 0 0-2.12-8.48 3.262-8.48 2.411 0 4.633.799 4.633 4.354 0 3.099-2.726 7.404-8.988 7.127-6.281-.262-11.365-4.322-11.365-14.336 0-9.234 7.453-13.829 17.267-14.123 8.855-.261 15.528 4.534 15.528 13.65 0 12.166-17.532 39.858-17.532 50.688 0 8.121 7.307 12.655 14.452 12.655 9.275 0 17.087-9.166 17.087-9.166z" clip-path="url(#a)" opacity="1" data-original="#fec613" class=""></path><path fill="#fec613" d="M122.154 709.277c0-20.305-18.233-30.758-32.57-30.758C70.291 678.52 60 690.065 60 705.184c0 8.562 1.566 13.928 5.533 22.131 0 0 31.834 66.229 44.225 91.834 1.553 3.196 2.059 6.833 2.059 12.166 0 8.235-7.991 14.955-16.357 15.167-7.636.195-15.954-7.11-15.954-15.444 0-10.111 5.237-14.612 10.635-14.612 6.621 0 9.263 2.724 9.263 7.371 0 3.245-1.566 4.648-3.816 4.648-5.689 0-4.095-7.649-4.095-7.649-2.817.62-5.135 3.49-3.816 7.095a10.29 10.29 0 0 0-5.51 3.294c1.515 1.473 3.26 2.609 5.51 3.001-1.319 4.387.461 6.54 4.31 7.453-.785-1.696-.819-3.262-.557-4.729 6.051 1.729 15.332-1.012 15.332-11.465 0-10.389-7.194-19.13-20.712-16.945 3.209-1.549 4.842-4.696 5.168-8.198-2.446.941-5.168 1.088-5.168 1.088 1.582-2.788 3.766-5.186 3.686-10.665-2.514 1.141-4.848 3.245-8.059 1.908 5.04-9.916-1.144-23.55-16.896-26.775 5.757 6.748 8.58 14.055 8.58 21.312 0 23.55-6.543 27.513-6.543 43.87 0 6.85 3.524 14.254 10.504 19.276v-.276c-4.617 1.239-7.569 3.506-9.263 6.588 10.538 2.984 25.851 2.936 34.066-.293 9.461-1.109 16.05-8.351 18.007-12.036 1.943-3.686 5.708-16.993 0-28.964-6.262-13.112-35.795-75.721-44.997-95.389-1.953-4.176-3.131-8.611-3.131-13.406 0-12.052 11.043-16.26 17.305-16.26 7.502 0 15.135 5.725 15.135 12.852 0 4.518-2.446 7.241-5.987 7.241-8.479 0-7.973-7.209-6.279-11.759-5.263 2.381-8.333 6.605-7.498 11.073-2.984.408-5.824 1.827-8.45 4.778 2.069 2.609 4.583 4.583 8.45 4.648-1.684 6.931 2.952 9.866 7.498 11.481-1.431-5.072-2.379-10.927 6.279-10.927 6.313 0 11.273-1.093 14.174-5.203.163 5.48.685 27.072.685 27.072.359 8.105-10.864 7.877-18.007 5.464 2.693 9.345 8.222 14.4 21.01 13.108-3.115 1.309-6.409 4.228-6.409 9.854 0 7.601 6.163 16.031 10.223 18.527z" clip-path="url(#a)" opacity="1" data-original="#fec613" class=""></path><path fill="#fec613" d="M122.154 648.348c0 20.321-18.233 30.759-32.57 30.759C70.291 679.106 60 667.56 60 652.458c0-8.578 1.566-13.939 5.533-22.147 0 0 31.834-66.213 44.225-91.833 1.553-3.196 2.059-6.834 2.059-12.171 0-8.215-7.991-14.951-16.357-15.162-7.636-.18-15.954 7.126-15.954 15.443 0 10.111 5.237 14.629 10.635 14.629 6.621 0 9.263-2.724 9.263-7.388 0-3.245-1.566-4.647-3.816-4.647-5.689 0-4.095 7.665-4.095 7.665-2.817-.616-5.135-3.507-3.816-7.11a10.269 10.269 0 0 1-5.51-3.278c1.515-1.484 3.26-2.626 5.51-3.018-1.319-4.387.461-6.54 4.31-7.437-.785 1.68-.819 3.245-.557 4.713 6.051-1.729 15.332 1.012 15.332 11.481 0 10.389-7.194 19.13-20.712 16.944 3.209 1.533 4.842 4.681 5.168 8.203-2.446-.962-5.168-1.092-5.168-1.092 1.582 2.772 3.766 5.186 3.686 10.649-2.514-1.142-4.848-3.245-8.059-1.908 5.04 9.915-1.144 23.55-16.896 26.778 5.757-6.752 8.58-14.058 8.58-21.315 0-23.55-6.543-27.496-6.543-43.87 0-6.85 3.524-14.237 10.504-19.26v.261c-4.617-1.224-7.569-3.507-9.263-6.589 10.538-2.984 25.851-2.936 34.066.31 9.461 1.093 16.05 8.351 18.007 12.02 1.943 3.687 5.708 16.994 0 28.98-6.262 13.112-35.795 75.704-44.997 95.39-1.953 4.175-3.131 8.594-3.131 13.389 0 12.053 11.043 16.26 17.305 16.26 7.502 0 15.135-5.708 15.135-12.852 0-4.518-2.446-7.24-5.987-7.24-8.479 0-7.973 7.208-6.279 11.758-5.263-2.381-8.333-6.604-7.498-11.073-2.984-.407-5.824-1.826-8.45-4.778 2.069-2.609 4.583-4.583 8.45-4.644-1.684-6.936 2.952-9.854 7.498-11.481-1.431 5.084-2.379 10.923 6.279 10.923 6.313 0 11.273 1.093 14.174 5.202.163-5.463.685-27.056.685-27.056.359-8.122-10.864-7.894-18.007-5.479 2.693-9.346 8.222-14.389 21.01-13.112-3.115-1.305-6.409-4.225-6.409-9.835 0-7.611 6.163-16.047 10.223-18.526zM120.132 928.938s9.62 8.094 12.902 4.028c5.247-6.523-16.178-39.043-16.178-50.491 0-18.804 12.542-23.908 28.03-26.6 10.393-1.794 27.317.75 27.317.75-3.194 4.289-5.264 5.545-10.629 5.888 5.965 3.099 12.066 9.834 12.066 20.32 0 16.179-6.668 22.849-6.668 41.065 0 10.127 8.299 22.995 8.299 22.995-14.662-1.468-21.919-15.037-17.793-25.882-2.33-.343-4.45.18-6.262 1.908-1.079-3.001.622-6.491 2.889-9.508-1.829-.979-3.164-.388-6.087.212.279-3.099 2.139-6.394 6.672-9.492-13.177 3.425-21.285-5.757-21.285-15.362 0-7.273 5.09-12.477 10.066-12.477 1.61 0 3.979.669 5.298 1.664.948-2.006.458-4.681-.506-6.683 3.637.975 5.953 3.132 4.304 7.645 2.807.261 5.039 1.207 6.56 3.001-1.549 1.974-3.867 3.099-6.56 3.001 2.042 4.207-.224 6.572-3.535 8.48 0 0 2.104-8.48-3.278-8.48-2.418 0-4.617.799-4.617 4.354 0 3.099 2.705 7.404 8.984 7.127 6.262-.262 11.353-4.322 11.353-14.336 0-9.234-7.453-13.829-17.256-14.123-8.854-.261-15.538 4.534-15.538 13.65 0 12.166 17.546 39.858 17.546 50.688 0 8.121-7.306 12.655-14.466 12.655-9.263 0-17.091-9.166-17.091-9.166l5.447-6.833h.016z" clip-path="url(#a)" opacity="1" data-original="#fec613" class=""></path><path fill="#fec613" d="M118.107 709.277c0-20.305 18.237-30.758 32.552-30.758 19.309 0 29.586 11.546 29.586 26.664 0 8.562-1.566 13.928-5.512 22.131 0 0-31.851 66.229-44.248 91.834-1.547 3.196-2.037 6.833-2.037 12.166 0 8.235 7.975 14.955 16.357 15.167 7.633.195 15.948-7.11 15.948-15.444 0-10.111-5.251-14.612-10.633-14.612-6.634 0-9.259 2.724-9.259 7.371 0 3.245 1.565 4.648 3.816 4.648 5.673 0 4.073-7.649 4.073-7.649 2.824.62 5.158 3.49 3.816 7.095a10.31 10.31 0 0 1 5.533 3.294c-1.537 1.473-3.282 2.609-5.533 3.001 1.341 4.387-.438 6.54-4.287 7.453.781-1.696.797-3.262.554-4.729-6.064 1.729-15.346-1.012-15.346-11.465 0-10.389 7.21-19.13 20.728-16.945-3.215-1.549-4.86-4.696-5.184-8.198 2.458.941 5.184 1.088 5.184 1.088-1.582-2.788-3.781-5.186-3.686-10.665 2.514 1.141 4.825 3.245 8.04 1.908-5.039-9.916 1.158-23.55 16.914-26.775-5.775 6.748-8.597 14.055-8.597 21.312 0 23.55 6.538 27.513 6.538 43.87 0 6.85-3.502 14.254-10.482 19.276v-.276c4.613 1.239 7.565 3.506 9.259 6.588-10.533 2.984-25.847 2.936-34.085-.293-9.438-1.109-16.043-8.351-17.986-12.036-1.94-3.686-5.722-16.993 0-28.964 6.263-13.112 35.781-75.721 44.996-95.389 1.941-4.176 3.131-8.611 3.131-13.406 0-12.052-11.039-16.26-17.318-16.26-7.504 0-15.134 5.725-15.134 12.852 0 4.518 2.462 7.241 6 7.241 8.479 0 7.957-7.209 6.279-11.759 5.268 2.381 8.333 6.605 7.485 11.073 2.985.408 5.841 1.827 8.462 4.778-2.071 2.609-4.579 4.583-8.462 4.648 1.694 6.931-2.936 9.866-7.485 11.481 1.435-5.072 2.379-10.927-6.279-10.927-6.313 0-11.286-1.093-14.17-5.203-.179 5.48-.685 27.072-.685 27.072-.359 8.105 10.859 7.877 17.986 5.464-2.689 9.345-8.206 14.4-20.989 13.108 3.099 1.309 6.409 4.228 6.409 9.854 0 7.601-6.179 16.031-10.226 18.527z" clip-path="url(#a)" opacity="1" data-original="#fec613" class=""></path><path fill="#fec613" d="M118.107 648.348c0 20.321 18.237 30.759 32.552 30.759 19.309 0 29.586-11.547 29.586-26.648 0-8.578-1.566-13.939-5.512-22.147 0 0-31.851-66.213-44.248-91.833-1.547-3.196-2.037-6.834-2.037-12.171 0-8.215 7.975-14.951 16.357-15.162 7.633-.18 15.948 7.126 15.948 15.443 0 10.111-5.251 14.629-10.633 14.629-6.634 0-9.259-2.724-9.259-7.388 0-3.245 1.565-4.647 3.816-4.647 5.673 0 4.073 7.665 4.073 7.665 2.824-.616 5.158-3.507 3.816-7.11a10.289 10.289 0 0 0 5.533-3.278c-1.537-1.484-3.282-2.626-5.533-3.018 1.341-4.387-.438-6.54-4.287-7.437.781 1.68.797 3.245.554 4.713-6.064-1.729-15.346 1.012-15.346 11.481 0 10.389 7.21 19.13 20.728 16.944-3.215 1.533-4.86 4.681-5.184 8.203 2.458-.962 5.184-1.092 5.184-1.092-1.582 2.772-3.781 5.186-3.686 10.649 2.514-1.142 4.825-3.245 8.04-1.908-5.039 9.915 1.158 23.55 16.914 26.778-5.775-6.752-8.597-14.058-8.597-21.315 0-23.55 6.538-27.496 6.538-43.87 0-6.85-3.502-14.237-10.482-19.26v.261c4.613-1.224 7.565-3.507 9.259-6.589-10.533-2.984-25.847-2.936-34.085.31-9.438 1.093-16.043 8.351-17.986 12.02-1.94 3.687-5.722 16.994 0 28.98 6.263 13.112 35.781 75.704 44.996 95.39 1.941 4.175 3.131 8.594 3.131 13.389 0 12.053-11.039 16.26-17.318 16.26-7.504 0-15.134-5.708-15.134-12.852 0-4.518 2.462-7.24 6-7.24 8.479 0 7.957 7.208 6.279 11.758 5.268-2.381 8.333-6.604 7.485-11.073 2.985-.407 5.841-1.826 8.462-4.778-2.071-2.609-4.579-4.583-8.462-4.644 1.694-6.936-2.936-9.854-7.485-11.481 1.435 5.084 2.379 10.923-6.279 10.923-6.313 0-11.286 1.093-14.17 5.202-.179-5.463-.685-27.056-.685-27.056-.359-8.122 10.859-7.894 17.986-5.479-2.689-9.346-8.206-14.389-20.989-13.112 3.099-1.305 6.409-4.225 6.409-9.835 0-7.611-6.179-16.047-10.226-18.526z" clip-path="url(#a)" opacity="1" data-original="#fec613" class=""></path></g></svg>