<svg xmlns="http://www.w3.org/2000/svg" style="display:none">
  <defs>
    <symbol id="icon-fire" viewBox="0 0 24 24" fill="none" stroke="currentColor" stroke-width="1.75" stroke-linecap="round" stroke-linejoin="round">
      <path d="M12 2c1 3-2 4-2 7a4 4 0 0 0 8 0c0-1-.5-2-1-3 2 1 3 3.5 3 6a6 6 0 1 1-12 0c0-4 2-6 4-10z"/>
    </symbol>
    <symbol id="icon-target" viewBox="0 0 24 24" fill="none" stroke="currentColor" stroke-width="1.75" stroke-linecap="round" stroke-linejoin="round">
      <circle cx="12" cy="12" r="9"/>
      <circle cx="12" cy="12" r="5"/>
      <circle cx="12" cy="12" r="1"/>
    </symbol>
    <symbol id="icon-robot" viewBox="0 0 24 24" fill="none" stroke="currentColor" stroke-width="1.75" stroke-linecap="round" stroke-linejoin="round">
      <rect x="4" y="8" width="16" height="12" rx="3"/>
      <path d="M12 8V4"/>
      <circle cx="12" cy="3" r="1.2" fill="currentColor" stroke="none"/>
      <circle cx="9" cy="14" r="1.2" fill="currentColor" stroke="none"/>
      <circle cx="15" cy="14" r="1.2" fill="currentColor" stroke="none"/>
      <path d="M9 18h6"/>
      <path d="M2 13v3"/>
      <path d="M22 13v3"/>
    </symbol>
    <symbol id="icon-clock" viewBox="0 0 24 24" fill="none" stroke="currentColor" stroke-width="1.75" stroke-linecap="round" stroke-linejoin="round">
      <circle cx="12" cy="12" r="9"/>
      <path d="M12 7v5l3.5 2"/>
    </symbol>
    <symbol id="icon-users" viewBox="0 0 24 24" fill="none" stroke="currentColor" stroke-width="1.75" stroke-linecap="round" stroke-linejoin="round">
      <circle cx="9" cy="8" r="3.2"/>
      <path d="M2.5 20c0-3.6 2.9-6 6.5-6s6.5 2.4 6.5 6"/>
      <path d="M16.5 4.3a3.2 3.2 0 0 1 0 6.2"/>
      <path d="M18.5 14.3c2.4.5 3.9 2.4 3.9 5.7"/>
    </symbol>
    <symbol id="icon-ticket" viewBox="0 0 24 24" fill="none" stroke="currentColor" stroke-width="1.75" stroke-linecap="round" stroke-linejoin="round">
      <path d="M3 8a2 2 0 0 1 2-2h14a2 2 0 0 1 2 2v1.5a1.7 1.7 0 0 0 0 3.4V17a2 2 0 0 1-2 2H5a2 2 0 0 1-2-2v-4.1a1.7 1.7 0 0 0 0-3.4V8z"/>
      <path d="M13 6v12" stroke-dasharray="2.5 2.5"/>
    </symbol>
    <symbol id="icon-check-circle" viewBox="0 0 24 24" fill="none" stroke="currentColor" stroke-width="1.75" stroke-linecap="round" stroke-linejoin="round">
      <circle cx="12" cy="12" r="9"/>
      <path d="M8.5 12.5l2.3 2.3L15.5 9.5"/>
    </symbol>
    <symbol id="icon-x-circle" viewBox="0 0 24 24" fill="none" stroke="currentColor" stroke-width="1.75" stroke-linecap="round" stroke-linejoin="round">
      <circle cx="12" cy="12" r="9"/>
      <path d="M9.5 9.5l5 5M14.5 9.5l-5 5"/>
    </symbol>
    <symbol id="icon-sparkle" viewBox="0 0 24 24" fill="none" stroke="currentColor" stroke-width="1.75" stroke-linecap="round" stroke-linejoin="round">
      <path d="M12 3l1.8 5.2L19 10l-5.2 1.8L12 17l-1.8-5.2L5 10l5.2-1.8L12 3z"/>
    </symbol>
    <symbol id="icon-flag" viewBox="0 0 24 24" fill="none" stroke="currentColor" stroke-width="1.75" stroke-linecap="round" stroke-linejoin="round">
      <path d="M5 21V4"/>
      <path d="M5 5h13l-3 4 3 4H5"/>
    </symbol>
    <symbol id="icon-trend-up" viewBox="0 0 24 24" fill="none" stroke="currentColor" stroke-width="1.75" stroke-linecap="round" stroke-linejoin="round">
      <path d="M3 17l6-6 4 4 8-9"/>
      <path d="M15 6h6v6"/>
    </symbol>
    <symbol id="icon-dollar" viewBox="0 0 24 24" fill="none" stroke="currentColor" stroke-width="1.75" stroke-linecap="round" stroke-linejoin="round">
      <line x1="12" y1="1" x2="12" y2="23" />
      <path d="M17 5H9.5a3.5 3.5 0 0 0 0 7h5a3.5 3.5 0 0 1 0 7H6" />
    </symbol>
    <symbol id="icon-unlock" viewBox="0 0 24 24" fill="none" stroke="currentColor" stroke-width="1.75" stroke-linecap="round" stroke-linejoin="round">
      <rect x="4" y="11" width="16" height="10" rx="2"/>
      <path d="M8 11V7a4 4 0 0 1 7.5-2"/>
    </symbol>
    <symbol id="icon-refresh" viewBox="0 0 24 24" fill="none" stroke="currentColor" stroke-width="1.75" stroke-linecap="round" stroke-linejoin="round">
      <path d="M4 12a8 8 0 0 1 14.5-4.7M20 12a8 8 0 0 1-14.5 4.7"/>
      <path d="M18 3v4.5h-4.5"/>
      <path d="M6 21v-4.5h4.5"/>
    </symbol>
    <symbol id="icon-bank" viewBox="0 0 24 24" fill="none" stroke="currentColor" stroke-width="1.75" stroke-linecap="round" stroke-linejoin="round">
      <path d="M3 10l9-6 9 6"/>
      <path d="M5 10v9M10 10v9M14 10v9M19 10v9"/>
      <path d="M3 19h18"/>
    </symbol>
    <symbol id="icon-link" viewBox="0 0 24 24" fill="none" stroke="currentColor" stroke-width="1.75" stroke-linecap="round" stroke-linejoin="round">
      <path d="M9.5 14.5l5-5"/>
      <path d="M11 6.5l1-1a3.5 3.5 0 0 1 5 5l-1 1"/>
      <path d="M13 17.5l-1 1a3.5 3.5 0 0 1-5-5l1-1"/>
    </symbol>
    <symbol id="icon-building" viewBox="0 0 24 24" fill="none" stroke="currentColor" stroke-width="1.75" stroke-linecap="round" stroke-linejoin="round">
      <rect x="4" y="3" width="10" height="18"/>
      <rect x="14" y="9" width="6" height="12"/>
      <path d="M7 7h1M11 7h1M7 11h1M11 11h1M7 15h1M11 15h1"/>
    </symbol>
    <symbol id="icon-rocket" viewBox="0 0 24 24" fill="none" stroke="currentColor" stroke-width="1.75" stroke-linecap="round" stroke-linejoin="round">
      <path d="M12 2c3 1 5.5 4 5.5 8.5-2 1-4 1-5.5 3-1.5-2-3.5-2-5.5-3C6.5 6 9 3 12 2z"/>
      <path d="M9 15l-3 3 1.2-4.2"/>
      <path d="M15 15l3 3-1.2-4.2"/>
      <circle cx="12" cy="9" r="1.4" fill="currentColor" stroke="none"/>
    </symbol>
    <symbol id="icon-globe" viewBox="0 0 24 24" fill="none" stroke="currentColor" stroke-width="1.75" stroke-linecap="round" stroke-linejoin="round">
      <circle cx="12" cy="12" r="9"/>
      <path d="M3 12h18"/>
      <path d="M12 3c2.6 2.5 4 5.6 4 9s-1.4 6.5-4 9c-2.6-2.5-4-5.6-4-9s1.4-6.5 4-9z"/>
    </symbol>
    <symbol id="icon-zap" viewBox="0 0 24 24" fill="none" stroke="currentColor" stroke-width="1.75" stroke-linecap="round" stroke-linejoin="round">
      <path d="M13 2 4 14h6l-1 8 9-12h-6l1-8z"/>
    </symbol>
    <symbol id="icon-search" viewBox="0 0 24 24" fill="none" stroke="currentColor" stroke-width="1.75" stroke-linecap="round" stroke-linejoin="round">
      <circle cx="11" cy="11" r="7"/>
      <path d="M21 21l-4.35-4.35"/>
    </symbol>
    <symbol id="icon-clipboard" viewBox="0 0 24 24" fill="none" stroke="currentColor" stroke-width="1.75" stroke-linecap="round" stroke-linejoin="round">
      <rect x="6" y="4" width="12" height="17" rx="2"/>
      <path d="M9 4V3a1 1 0 0 1 1-1h4a1 1 0 0 1 1 1v1"/>
      <path d="M9 11h6M9 15h6"/>
    </symbol>
    <symbol id="icon-gem" viewBox="0 0 24 24" fill="none" stroke="currentColor" stroke-width="1.75" stroke-linecap="round" stroke-linejoin="round">
      <path d="M6 3h12l3 6-9 12L3 9z"/>
      <path d="M3 9h18"/>
      <path d="M9 3l3 6 3-6"/>
      <path d="M12 9l-3 3 3 9 3-9-3-3z"/>
    </symbol>
    <symbol id="icon-hourglass" viewBox="0 0 24 24" fill="none" stroke="currentColor" stroke-width="1.75" stroke-linecap="round" stroke-linejoin="round">
      <path d="M6 2h12"/>
      <path d="M6 22h12"/>
      <path d="M7 2c0 5 4 6 5 8-1 2-5 3-5 8"/>
      <path d="M17 2c0 5-4 6-5 8 1 2 5 3 5 8"/>
    </symbol>
    <symbol id="icon-trophy" viewBox="0 0 24 24" fill="none" stroke="currentColor" stroke-width="1.75" stroke-linecap="round" stroke-linejoin="round">
      <path d="M7 4h10v5a5 5 0 0 1-10 0V4z"/>
      <path d="M5 6H3v1a4 4 0 0 0 4 4"/>
      <path d="M19 6h2v1a4 4 0 0 1-4 4"/>
      <path d="M12 14v3"/>
      <path d="M8 21h8"/>
      <path d="M9 21c0-2 1.3-3 3-3s3 1 3 3"/>
    </symbol>
    <symbol id="icon-arrow-right" viewBox="0 0 24 24" fill="none" stroke="currentColor" stroke-width="1.75" stroke-linecap="round" stroke-linejoin="round">
      <path d="M4 12h16"/>
      <path d="M13 5l7 7-7 7"/>
    </symbol>
    <symbol id="icon-plus" viewBox="0 0 24 24" fill="none" stroke="currentColor" stroke-width="1.75" stroke-linecap="round" stroke-linejoin="round">
      <path d="M12 5v14M5 12h14"/>
    </symbol>
    <symbol id="icon-mail" viewBox="0 0 24 24" fill="none" stroke="currentColor" stroke-width="1.75" stroke-linecap="round" stroke-linejoin="round">
      <rect x="3" y="5" width="18" height="14" rx="2"/>
      <path d="M4 6.5l8 6 8-6"/>
    </symbol>
    <symbol id="icon-google" viewBox="0 0 24 24">
      <path fill="#4285F4" d="M22.5 12.2c0-.8-.1-1.5-.2-2.2H12v4.3h5.9c-.3 1.4-1 2.5-2.2 3.3v2.7h3.6c2.1-1.9 3.2-4.8 3.2-8.1z"/>
      <path fill="#34A853" d="M12 23c3 0 5.4-1 7.3-2.7l-3.6-2.7c-1 .7-2.2 1.1-3.7 1.1-2.8 0-5.2-1.9-6-4.5H2.3v2.8A11 11 0 0 0 12 23z"/>
      <path fill="#FBBC05" d="M6 14.2a6.6 6.6 0 0 1 0-4.4V7H2.3a11 11 0 0 0 0 10l3.7-2.8z"/>
      <path fill="#EA4335" d="M12 5.4c1.6 0 3.1.6 4.3 1.6l3.2-3.2C17.4 1.9 15 1 12 1a11 11 0 0 0-9.7 6l3.7 2.8c.8-2.6 3.2-4.4 6-4.4z"/>
    </symbol>
    <symbol id="icon-telegram" viewBox="0 0 24 24" fill="none">
      <circle cx="12" cy="12" r="10" fill="#29A9EA"/>
      <path fill="#fff" d="M6.6 12l10-4c.5-.2 1 .2.8.9l-1.7 8.2c-.1.6-.5.7-1 .4l-2.8-2.1-1.4 1.3c-.1.1-.3.2-.5.2l.2-2.8 5.1-4.6c.2-.2 0-.3-.3-.1l-6.3 4-2.7-.8c-.6-.2-.6-.6.1-.9z"/>
    </symbol>
    <symbol id="icon-sun" viewBox="0 0 24 24" fill="none" stroke="currentColor" stroke-width="1.75" stroke-linecap="round" stroke-linejoin="round">
      <circle cx="12" cy="12" r="4.5"/>
      <path d="M12 2v2M12 20v2M4.2 4.2l1.4 1.4M18.4 18.4l1.4 1.4M2 12h2M20 12h2M4.2 19.8l1.4-1.4M18.4 5.6l1.4-1.4"/>
    </symbol>
    <symbol id="icon-moon" viewBox="0 0 24 24" fill="none" stroke="currentColor" stroke-width="1.75" stroke-linecap="round" stroke-linejoin="round">
      <path d="M20 14.5A8.5 8.5 0 1 1 9.5 4a7 7 0 0 0 10.5 10.5z"/>
    </symbol>
    <symbol id="icon-download" viewBox="0 0 24 24" fill="none" stroke="currentColor" stroke-width="1.75" stroke-linecap="round" stroke-linejoin="round">
      <path d="M12 3v12"/>
      <path d="M7 10l5 5 5-5"/>
      <path d="M5 21h14"/>
    </symbol>
    <symbol id="icon-upload" viewBox="0 0 24 24" fill="none" stroke="currentColor" stroke-width="1.75" stroke-linecap="round" stroke-linejoin="round">
      <path d="M12 21V9"/>
      <path d="M7 14l5-5 5 5"/>
      <path d="M5 21h14"/>
    </symbol>
    <symbol id="icon-bulb" viewBox="0 0 24 24" fill="none" stroke="currentColor" stroke-width="1.75" stroke-linecap="round" stroke-linejoin="round">
      <path d="M9 18h6"/>
      <path d="M10 21h4"/>
      <path d="M12 3a6 6 0 0 0-3.5 10.9c.6.5 1 1.3 1 2.1h5c0-.8.4-1.6 1-2.1A6 6 0 0 0 12 3z"/>
    </symbol>
    <symbol id="icon-percent" viewBox="0 0 24 24" fill="none" stroke="currentColor" stroke-width="1.75" stroke-linecap="round" stroke-linejoin="round">
      <path d="M5 19L19 5"/>
      <circle cx="7" cy="7" r="2.3"/>
      <circle cx="17" cy="17" r="2.3"/>
    </symbol>
    <symbol id="icon-layers" viewBox="0 0 24 24" fill="none" stroke="currentColor" stroke-width="1.75" stroke-linecap="round" stroke-linejoin="round">
      <path d="M12 3l9 5-9 5-9-5 9-5z"/>
      <path d="M3 13l9 5 9-5"/>
      <path d="M3 17l9 5 9-5"/>
    </symbol>
    <symbol id="icon-award" viewBox="0 0 24 24" fill="none" stroke="currentColor" stroke-width="1.75" stroke-linecap="round" stroke-linejoin="round">
      <circle cx="12" cy="8" r="5"/>
      <path d="M8.5 12.5L7 21l5-2.5L17 21l-1.5-8.5"/>
    </symbol>
    <symbol id="icon-crown" viewBox="0 0 24 24" fill="none" stroke="currentColor" stroke-width="1.75" stroke-linecap="round" stroke-linejoin="round">
      <path d="M3 8l4 3 5-6 5 6 4-3-2 11H5L3 8z"/>
      <path d="M5 19h14"/>
    </symbol>
    <symbol id="icon-shield" viewBox="0 0 24 24" fill="none" stroke="currentColor" stroke-width="1.75" stroke-linecap="round" stroke-linejoin="round">
      <path d="M12 3l7 3v6c0 4.5-3 7.5-7 9-4-1.5-7-4.5-7-9V6l7-3z"/>
      <path d="M9 12l2 2 4-4"/>
    </symbol>
    <symbol id="icon-chevron-down" viewBox="0 0 24 24" fill="none" stroke="currentColor" stroke-width="1.75" stroke-linecap="round" stroke-linejoin="round">
      <path d="M6 9l6 6 6-6"/>
    </symbol>
    <symbol id="icon-menu" viewBox="0 0 24 24" fill="none" stroke="currentColor" stroke-width="1.75" stroke-linecap="round" stroke-linejoin="round">
      <path d="M4 6h16M4 12h16M4 18h16"/>
    </symbol>
    <symbol id="icon-x" viewBox="0 0 24 24" fill="none" stroke="currentColor" stroke-width="1.75" stroke-linecap="round" stroke-linejoin="round">
      <path d="M6 6l12 12M18 6L6 18"/>
    </symbol>
    <symbol id="icon-user" viewBox="0 0 24 24" fill="none" stroke="currentColor" stroke-width="1.75" stroke-linecap="round" stroke-linejoin="round">
      <circle cx="12" cy="8" r="3.5"/>
      <path d="M4.5 20c0-3.6 3-6.5 7.5-6.5s7.5 2.9 7.5 6.5"/>
    </symbol>
    <symbol id="icon-home" viewBox="0 0 24 24" fill="none" stroke="currentColor" stroke-width="1.75" stroke-linecap="round" stroke-linejoin="round">
      <path d="M4 10.5 12 4l8 6.5"/>
      <path d="M6 9.5V20h12V9.5"/>
      <path d="M10 20v-6h4v6"/>
    </symbol>
    <symbol id="icon-wallet" viewBox="0 0 24 24" fill="none" stroke="currentColor" stroke-width="1.75" stroke-linecap="round" stroke-linejoin="round">
      <path d="M3 7a2 2 0 0 1 2-2h13a1 1 0 0 1 1 1v2"/>
      <path d="M3 7v11a2 2 0 0 0 2 2h14a1 1 0 0 0 1-1v-9a1 1 0 0 0-1-1H6a2 2 0 0 1-2-2"/>
      <circle cx="16.5" cy="13.5" r="1.3" fill="currentColor" stroke="none"/>
    </symbol>
    <symbol id="icon-wifi" viewBox="0 0 24 24" fill="none" stroke="currentColor" stroke-width="1.75" stroke-linecap="round" stroke-linejoin="round">
      <path d="M2 8.8a15 15 0 0 1 20 0"/>
      <path d="M5 12.9a10 10 0 0 1 14 0"/>
      <path d="M8.5 16.4a5 5 0 0 1 7 0"/>
      <path d="M12 20h.01"/>
    </symbol>
    <symbol id="icon-battery" viewBox="0 0 24 24" fill="none" stroke="currentColor" stroke-width="1.5" stroke-linecap="round" stroke-linejoin="round">
      <rect x="2" y="7" width="17" height="10" rx="2"/>
      <path d="M22 10.5v3"/>
      <rect x="4" y="9" width="12" height="6" rx="1" fill="currentColor" stroke="none"/>
    </symbol>
    <symbol id="icon-arrow-down-left" viewBox="0 0 24 24" fill="none" stroke="currentColor" stroke-width="1.75" stroke-linecap="round" stroke-linejoin="round">
      <path d="M18 6 6 18"/>
      <path d="M11 18H6v-5"/>
    </symbol>
    <symbol id="icon-flag-ru" viewBox="0 0 24 24">
      <defs><clipPath id="clip-flag-ru"><circle cx="12" cy="12" r="11"/></clipPath></defs>
      <g clip-path="url(#clip-flag-ru)">
        <rect x="0" y="0" width="24" height="8" fill="#F3F4F6"/>
        <rect x="0" y="8" width="24" height="8" fill="#1E7FCB"/>
        <rect x="0" y="16" width="24" height="8" fill="#D33A3A"/>
      </g>
      <circle cx="12" cy="12" r="10.5" fill="none" stroke="currentColor" stroke-opacity="0.12"/>
    </symbol>
    <symbol id="icon-flag-gb" viewBox="0 0 24 24">
      <defs><clipPath id="clip-flag-gb"><circle cx="12" cy="12" r="11"/></clipPath></defs>
      <g clip-path="url(#clip-flag-gb)">
        <rect x="0" y="0" width="24" height="24" fill="#1E2A5E"/>
        <path d="M0 0 24 24M24 0 0 24" stroke="#F3F4F6" stroke-width="3"/>
        <path d="M0 0 24 24M24 0 0 24" stroke="#D33A3A" stroke-width="1.3"/>
        <path d="M12 0v24M0 12h24" stroke="#F3F4F6" stroke-width="5.5"/>
        <path d="M12 0v24M0 12h24" stroke="#D33A3A" stroke-width="2.6"/>
      </g>
      <circle cx="12" cy="12" r="10.5" fill="none" stroke="currentColor" stroke-opacity="0.12"/>
    </symbol>
  </defs>
</svg>
